<svg xmlns="http://www.w3.org/2000/svg" viewBox="0 0 512 512">
  <defs>
    <linearGradient id="grad1" x1="0%" y1="0%" x2="100%" y2="100%">
      <stop offset="0%" style="stop-color:#008BFF;stop-opacity:1" />
      <stop offset="100%" style="stop-color:#00C853;stop-opacity:1" />
    </linearGradient>
    <linearGradient id="grad2" x1="0%" y1="0%" x2="100%" y2="100%">
      <stop offset="0%" style="stop-color:#00C853;stop-opacity:1" />
      <stop offset="100%" style="stop-color:#FFD600;stop-opacity:1" />
    </linearGradient>
    <style>
      /* Optional: Dark Mode Stroke Optimization */
      @media (prefers-color-scheme: dark) {
        circle { stroke: rgba(255,255,255,0.1); stroke-width: 2px; }
      }
    </style>
  </defs>
  
  <circle cx="256" cy="256" r="256" fill="#FFD600"/>
  
  <path d="M512,256 C512,397.385 397.385,512 256,512 C114.615,512 0,397.385 0,256 C0,200 20,150 50,110 C100,200 200,220 300,180 C400,140 480,200 512,256 Z" 
        fill="url(#grad2)"/>
        
  <path d="M0,256 C0,114.615 114.615,0 256,0 C320,0 380,20 420,50 C350,120 250,100 150,160 C50,220 0,200 0,256 Z" 
        fill="#008BFF"/>
</svg>